<?xml version="1.0" encoding="UTF-8"?>
<svg width="700pt" height="700pt" version="1.1" viewBox="0 0 700 700" xmlns="http://www.w3.org/2000/svg">
 <path d="m544.95 379.93c0 55.648-83.824 97.648-194.95 97.648s-194.95-42-194.95-97.648c0-46.023 58.801-83.301 144.02-94.148l-17.5-12.074v-0.003906c-5.125-3.6562-7.9102-9.7734-7.3086-16.039 0.60547-6.2695 4.5078-11.738 10.238-14.352 5.7305-2.6094 12.418-1.9648 17.547 1.6914l57.926 40.602c4.4141 3.043 7.1836 7.9453 7.5234 13.297 0.29688 5.3008-1.8242 10.453-5.7734 14l-52.5 47.602c-3.2383 2.8555-7.4141 4.4102-11.727 4.375-4.9102 0.035156-9.6094-2-12.949-5.6016-3.1562-3.4453-4.8047-8.0117-4.5742-12.68 0.23047-4.668 2.3164-9.0508 5.7969-12.168l15.227-13.648c-66.852 9.1016-110.95 36.051-110.95 58.977 0 29.574 68.426 62.648 159.95 62.648s159.95-33.074 159.95-62.648v-0.003906c-1.5391-10.492-7.5352-19.805-16.449-25.551-3.6602-2.8359-6.0469-7.0078-6.6367-11.598-0.58984-4.5938 0.66406-9.2305 3.4883-12.902 2.8359-3.6602 7.0039-6.043 11.598-6.6328 4.5938-0.59375 9.2305 0.66016 12.902 3.4844 18.012 11.934 29.203 31.785 30.098 53.375zm-360.32-106.75c3.0781 2.4688 6.9023 3.8281 10.852 3.8477 5.6602 0.21094 11.07-2.332 14.523-6.8242 2.9922-3.7773 4.2969-8.6211 3.6016-13.391-0.69531-4.7695-3.3281-9.043-7.2773-11.809-8.9141-5.7148-14.863-15.055-16.273-25.551 0-19.074 29.926-40.074 74.375-52.5 4.6211-1.0742 8.6055-3.9844 11.043-8.0547 2.4375-4.0703 3.1172-8.957 1.8828-13.539-1.2344-4.582-4.2773-8.4688-8.4297-10.766-4.1523-2.293-9.0586-2.8047-13.598-1.4141-62.824 17.5-100.27 48.824-100.27 85.75 0.40625 21.828 11.449 42.078 29.574 54.25zm195.48-71.926c3.2773 2.8945 7.5234 4.457 11.898 4.375 4.9102 0.035156 9.6094-2 12.949-5.6016 3.2109-3.4531 4.8945-8.0586 4.6641-12.77-0.23047-4.7109-2.3555-9.1289-5.8867-12.254l-17.5-15.574c74.023 7.3516 123.55 35.875 123.55 60.551h-0.003906c-1.5117 10.547-7.5117 19.922-16.449 25.723-13.949 10.332-29.664 18.043-46.375 22.75-8.3867 2.7305-16.918 5.0117-25.551 6.8242-4.5156 0.96875-8.4648 3.6836-10.992 7.5508-2.5234 3.8672-3.4141 8.5781-2.4805 13.102 0.81641 4.0117 3.0156 7.6094 6.2148 10.168 3.1953 2.5586 7.1914 3.9141 11.285 3.832 1.2188 0.16797 2.457 0.16797 3.6758 0 9.75-1.9922 19.391-4.5039 28.875-7.5273 20.715-6.0039 40.164-15.73 57.398-28.699 17.617-11.852 28.637-31.297 29.75-52.5 0-48.125-62.648-85.926-152.77-95.199l15.227-10.676h-0.003906c5.2852-3.625 8.2305-9.793 7.7305-16.184-0.49609-6.3867-4.3672-12.023-10.148-14.785-5.7812-2.7656-12.598-2.2305-17.883 1.3945l-57.922 40.602c-4.3672 3.0469-7.1055 7.9141-7.4453 13.227-0.34375 5.3125 1.7539 10.492 5.6953 14.07z"/>
</svg>
